<svg xmlns="http://www.w3.org/2000/svg" version="1.1" xmlns:xlink="http://www.w3.org/1999/xlink" width="1000" height="1000"><style>
    #light-icon {
      display: inline;
    }
    #dark-icon {
      display: none;
    }

    @media (prefers-color-scheme: dark) {
      #light-icon {
        display: none;
      }
      #dark-icon {
        display: inline;
      }
    }
  </style><g id="light-icon"><svg xmlns="http://www.w3.org/2000/svg" version="1.1" xmlns:xlink="http://www.w3.org/1999/xlink" width="1000" height="1000"><g><g transform="matrix(41.666666666666664,0,0,41.666666666666664,0,0)"><svg xmlns="http://www.w3.org/2000/svg" version="1.1" viewBox="0 0 24 24" width="24" height="24" fill="none" id="stampchain-outline-monotone-dark" xmlns:svg="http://www.w3.org/2000/svg"><path id="chainright" d="m 14.75005,18.25 h 3 c 0.969528,0 1.75005,0.780523 1.75005,1.75005 0,0.969528 -0.780522,1.75005 -1.75005,1.75005 h -3 C 13.780523,21.7501 13,20.969578 13,20.00005 13,19.030523 13.780523,18.25 14.75005,18.25 Z" stroke="#111317" stroke-width="1" stroke-linecap="round" stroke-linejoin="round"></path><path id="chainleft" d="m 6.2499996,18.25 h 3 c 0.9695284,0 1.7500504,0.780523 1.7500504,1.75005 0,0.969528 -0.780522,1.75005 -1.7500504,1.75005 h -3 c -0.969527,0 -1.7500496,-0.780522 -1.7500496,-1.75005 0,-0.969527 0.7805226,-1.75005 1.7500496,-1.75005 z" stroke="#111317" stroke-width="1" stroke-linecap="round" stroke-linejoin="round"></path><path id="chainlink" d="M 8.9627005,20 H 14.962885" stroke="#111317" stroke-width="1" stroke-linecap="round" stroke-linejoin="round"></path><path id="rubber" d="m 18.500043,14.754668 c 0,0.549706 -0.413866,0.995418 -0.924306,0.995418 H 6.4242816 c -0.5104858,0 -0.9243246,-0.445712 -0.9243246,-0.995418 V 14.550061 C 5.499957,13.003625 6.6640221,11.75 8.0999746,11.75 h 7.8000534 c 1.435951,0 2.600015,1.253625 2.600015,2.800061 z" fill="none" stroke="#111317" stroke-width="1" stroke-linecap="round" stroke-linejoin="round"></path><path id="handle" d="m 10.750299,11.75044 c 0,-0.729694 -0.05168,-2.4592612 -1.1405723,-4.9185879 C 9.1267067,5.740926 9.1332138,4.5990562 9.3127436,3.6998312 9.3713881,3.4060894 9.5193303,3.2560871 9.720199,3.0942677 9.9522067,2.9073603 10.068211,2.8138994 10.188358,2.7344772 c 0.385011,-0.2545206 0.811871,-0.4098941 1.252091,-0.4557656 0.365507,-0.038091 0.753595,-0.038091 1.1191,0 0.440223,0.045873 0.867069,0.201245 1.252109,0.4557656 0.120136,0.079424 0.236163,0.1728831 0.468158,0.3597905 0.200823,0.1618194 0.348769,0.3118217 0.407439,0.6055635 0.179547,0.899225 0.18602,2.0410948 -0.297009,3.1320209 -1.088862,2.4593267 -1.140561,4.1888939 -1.140561,4.9185879" fill="none" stroke="#111317" stroke-width="1" stroke-linecap="round" stroke-linejoin="round"></path></svg></g></g></svg></g><g id="dark-icon"><svg xmlns="http://www.w3.org/2000/svg" version="1.1" xmlns:xlink="http://www.w3.org/1999/xlink" width="1000" height="1000"><g><g transform="matrix(41.666666666666664,0,0,41.666666666666664,0,0)"><svg xmlns="http://www.w3.org/2000/svg" version="1.1" viewBox="0 0 24 24" width="24" height="24" fill="none" id="stampchain-outline-monotone-light" xmlns:svg="http://www.w3.org/2000/svg"><path id="chainright" d="m 14.75005,18.25 h 3 c 0.969528,0 1.75005,0.780523 1.75005,1.75005 0,0.969528 -0.780522,1.75005 -1.75005,1.75005 h -3 C 13.780523,21.7501 13,20.969578 13,20.00005 13,19.030523 13.780523,18.25 14.75005,18.25 Z" stroke="#f9fafb" stroke-width="1" stroke-linecap="round" stroke-linejoin="round"></path><path id="chainleft" d="m 6.2499996,18.25 h 3 c 0.9695284,0 1.7500504,0.780523 1.7500504,1.75005 0,0.969528 -0.780522,1.75005 -1.7500504,1.75005 h -3 c -0.969527,0 -1.7500496,-0.780522 -1.7500496,-1.75005 0,-0.969527 0.7805226,-1.75005 1.7500496,-1.75005 z" stroke="#f9fafb" stroke-width="1" stroke-linecap="round" stroke-linejoin="round"></path><path id="chainlink" d="M 8.9627005,20 H 14.962885" stroke="#f9fafb" stroke-width="1" stroke-linecap="round" stroke-linejoin="round"></path><path id="rubber" d="m 18.500043,14.754668 c 0,0.549706 -0.413866,0.995418 -0.924306,0.995418 H 6.4242816 c -0.5104858,0 -0.9243246,-0.445712 -0.9243246,-0.995418 V 14.550061 C 5.499957,13.003625 6.6640221,11.75 8.0999746,11.75 h 7.8000534 c 1.435951,0 2.600015,1.253625 2.600015,2.800061 z" fill="none" stroke="#f9fafb" stroke-width="1" stroke-linecap="round" stroke-linejoin="round"></path><path id="handle" d="m 10.750299,11.75044 c 0,-0.729694 -0.05168,-2.4592612 -1.1405723,-4.9185879 C 9.1267067,5.740926 9.1332138,4.5990562 9.3127436,3.6998312 9.3713881,3.4060894 9.5193303,3.2560871 9.720199,3.0942677 9.9522067,2.9073603 10.068211,2.8138994 10.188358,2.7344772 c 0.385011,-0.2545206 0.811871,-0.4098941 1.252091,-0.4557656 0.365507,-0.038091 0.753595,-0.038091 1.1191,0 0.440223,0.045873 0.867069,0.201245 1.252109,0.4557656 0.120136,0.079424 0.236163,0.1728831 0.468158,0.3597905 0.200823,0.1618194 0.348769,0.3118217 0.407439,0.6055635 0.179547,0.899225 0.18602,2.0410948 -0.297009,3.1320209 -1.088862,2.4593267 -1.140561,4.1888939 -1.140561,4.9185879" fill="none" stroke="#f9fafb" stroke-width="1" stroke-linecap="round" stroke-linejoin="round"></path></svg></g></g></svg></g></svg>