<svg
   viewBox="0 0 240 24"
   width="240"
   height="24"
   fill="none"
   version="1.1"
   id="logo"
   xmlns:xlink="http://www.w3.org/1999/xlink"
   xmlns="http://www.w3.org/2000/svg"
   xmlns:svg="http://www.w3.org/2000/svg">
  <defs>
    <linearGradient
       xlink:href="#linearGradient4"
       id="linearGradient5"
       gradientUnits="userSpaceOnUse"
       gradientTransform="matrix(1.2202153,0,0,1.2202153,-4.506,-3.0012735)"
       x1="25.000448"
       y1="12.293277"
       x2="189.35242"
       y2="12.293277" />
    <linearGradient
       id="linearGradient4">
      <stop
         style="stop-color:#bb00ff;stop-opacity:1;"
         offset="0"
         id="stop5" />
      <stop
         style="stop-color:#9d00d6;stop-opacity:1;"
         offset="0.16733727"
         id="stop13" />
      <stop
         style="stop-color:#7f00ad;stop-opacity:1;"
         offset="0.34999999"
         id="stop17" />
      <stop
         style="stop-color:#610085;stop-opacity:1;"
         offset="0.55000001"
         id="stop18" />
      <stop
         style="stop-color:#585552;stop-opacity:1;"
         offset="0.55000001"
         id="stop20" />
      <stop
         style="stop-color:#817e78;stop-opacity:1;"
         offset="0.68000001"
         id="stop21" />
      <stop
         style="stop-color:#a8a39d;stop-opacity:1;"
         offset="0.83999997"
         id="stop22" />
      <stop
         style="stop-color:#d1cbc3;stop-opacity:1;"
         offset="1"
         id="stop23" />
    </linearGradient>
    <linearGradient
       xlink:href="#linearGradient6"
       id="linearGradient8"
       x1="4.895658"
       y1="18.714344"
       x2="6.3958368"
       y2="20.211859"
       gradientUnits="userSpaceOnUse"
       gradientTransform="translate(2.00005,-0.25)" />
    <linearGradient
       id="linearGradient6">
      <stop
         style="stop-color:#a8a39d;stop-opacity:1;"
         offset="0"
         id="stop7" />
      <stop
         style="stop-color:#817e78;stop-opacity:1;"
         offset="1"
         id="stop8" />
    </linearGradient>
    <linearGradient
       xlink:href="#linearGradient9"
       id="linearGradient10"
       x1="17.90169"
       y1="20.068874"
       x2="18.985657"
       y2="21.675922"
       gradientUnits="userSpaceOnUse"
       gradientTransform="translate(2.00005,-0.25)" />
    <linearGradient
       id="linearGradient9">
      <stop
         style="stop-color:#817e78;stop-opacity:1;"
         offset="0"
         id="stop9" />
      <stop
         style="stop-color:#585552;stop-opacity:1;"
         offset="1"
         id="stop10" />
    </linearGradient>
    <linearGradient
       xlink:href="#linearGradient3"
       id="linearGradient13"
       gradientUnits="userSpaceOnUse"
       x1="12.215862"
       y1="12.033512"
       x2="13.174191"
       y2="17.468468"
       gradientTransform="matrix(0.92999371,0,0,0.95725791,2.8401194,0.1569773)" />
    <linearGradient
       id="linearGradient3">
      <stop
         style="stop-color:#9d00d6;stop-opacity:1;"
         offset="0"
         id="stop4" />
      <stop
         style="stop-color:#7f00ad;stop-opacity:1;"
         offset="0.50399435"
         id="stop2" />
      <stop
         style="stop-color:#610085;stop-opacity:1;"
         offset="1"
         id="stop16" />
    </linearGradient>
    <linearGradient
       xlink:href="#linearGradient1"
       id="linearGradient2"
       x1="9.6864662"
       y1="3.844517"
       x2="12.156346"
       y2="11.692166"
       gradientUnits="userSpaceOnUse"
       gradientTransform="matrix(0.99235786,0,0,1.0060325,2.091749,-0.29353487)" />
    <linearGradient
       id="linearGradient1">
      <stop
         style="stop-color:#bb00ff;stop-opacity:1;"
         offset="0"
         id="stop1" />
      <stop
         style="stop-color:#9d00d6;stop-opacity:1;"
         offset="0.21778475"
         id="stop12" />
      <stop
         style="stop-color:#7f00ad;stop-opacity:1;"
         offset="0.44388199"
         id="stop3" />
      <stop
         style="stop-color:#9d00d6;stop-opacity:1;"
         offset="0.75"
         id="stop14" />
    </linearGradient>
  </defs>
  <path
     id="stampchain text"
     d="m 36.190343,22.000014 q -1.961934,0 -3.83602,-0.439239 -1.844804,-0.468521 -3.455347,-1.405564 -1.610543,-0.937044 -2.898977,-2.371891 l 3.396781,-4.040999 q 0.819913,0.937044 1.961934,1.669109 1.142022,0.732065 2.371891,1.171304 1.229869,0.409956 2.313325,0.409956 0.556369,0 0.849195,-0.117131 0.322109,-0.146412 0.468522,-0.351391 0.146413,-0.204978 0.146413,-0.468521 0,-0.322109 -0.322109,-0.527087 -0.292826,-0.234261 -0.995608,-0.468522 l -2.723282,-0.966325 q -1.200586,-0.439239 -2.284042,-1.142022 -1.083456,-0.732065 -1.756956,-1.844803 -0.6735,-1.1127392 -0.6735,-2.664717 0,-2.1961949 1.112739,-3.6017596 1.112738,-1.4348474 3.016107,-2.1376298 1.903369,-0.7027823 4.27526,-0.7027823 3.162521,0 5.358715,1.0248909 2.196195,0.9956084 3.894586,2.6354339 L 42.80821,9.5841924 Q 42.076145,8.8521274 41.168385,8.295758 40.260624,7.710106 39.265016,7.3879975 38.269408,7.0658889 37.244517,7.0658889 q -0.468522,0 -0.790631,0.087848 -0.292826,0.087848 -0.439239,0.2635434 -0.146413,0.1756956 -0.146413,0.4392389 0,0.3513912 0.439239,0.6149346 0.439239,0.2342608 1.171304,0.4978042 l 2.489021,0.878478 q 2.25476,0.79063 3.455347,2.079064 1.229869,1.259152 1.229869,3.426064 0,2.108347 -1.112739,3.60176 -1.112738,1.493413 -3.016107,2.284043 -1.903369,0.761347 -4.333825,0.761347 z M 67.6785,2.2928253 66.507197,7.3001497 H 60.474981 L 57.166047,21.619341 H 50.343202 L 53.652136,7.3001497 H 47.590638 L 48.761942,2.2928253 Z M 62.299872,21.619341 73.105151,2.2928253 h 8.199128 l 1.756956,19.3265157 h -6.412889 l -0.08785,-3.865304 H 71.1725 l -1.903369,3.865304 z m 10.980975,-8.11128 h 3.16252 L 76.35552,7.0658889 Z m 11.751671,8.11128 4.480237,-19.3265157 h 8.345541 l 0.614935,7.6134757 0.146413,4.948759 h 0.02928 l 2.342606,-4.9780416 3.86531,-7.5841931 h 9.48756 l -4.48024,19.3265157 h -5.94437 l 1.55198,-6.705716 1.40557,-6.0907802 h -0.0586 L 100.05449,21.619341 H 94.930036 L 93.700167,9.027823 h -0.05856 l -1.112739,5.885802 -1.551978,6.705716 z m 28.559902,0 4.48024,-19.3265157 h 8.34554 q 3.83602,0 5.97365,1.6105429 2.16691,1.5812603 2.16691,4.5388028 0,2.225478 -1.05418,3.953151 -1.05417,1.698391 -3.04539,2.664716 -1.96193,0.966326 -4.74378,0.966326 h -7.26208 l 1.08346,-4.831629 h 5.59297 q 0.87848,0 1.46413,-0.292826 0.61494,-0.322108 0.93704,-0.819912 0.32211,-0.5270872 0.32211,-1.1420218 0,-0.8491954 -0.4978,-1.3177169 -0.49781,-0.4978042 -1.75696,-0.4978042 h -1.8448 l -3.33822,14.4948869 z m 31.83957,0.292826 q -2.66471,0 -4.7145,-1.024891 -2.02049,-1.054174 -3.1918,-2.92826 -1.14202,-1.903369 -1.14202,-4.421673 0,-2.664716 0.73206,-4.7730634 0.76135,-2.1376297 2.16692,-3.6310423 1.40556,-1.5226951 3.42606,-2.3133253 2.0205,-0.8199127 4.56809,-0.8199127 2.40117,0 4.24597,0.8199127 1.87409,0.8199128 3.01611,2.3718905 1.1713,1.5226952 1.43485,3.6896075 l -6.44217,1.259152 q 0.0586,-1.4641302 -0.49781,-2.2254778 -0.52708,-0.7906301 -1.81552,-0.7906301 -1.08346,0 -1.87409,0.6734997 -0.76134,0.6734998 -1.25915,1.7276734 -0.4978,1.0248908 -0.73206,2.1961948 -0.20498,1.171304 -0.20498,2.196195 0,0.878478 0.26354,1.522695 0.29283,0.644217 0.87848,0.995609 0.58565,0.351391 1.55198,0.351391 1.20059,0 1.87408,-0.761348 0.70279,-0.761347 1.17131,-1.961934 l 6.00293,2.196195 q -1.28843,2.664716 -3.63104,4.158129 -2.31333,1.493413 -5.82724,1.493413 z m 34.1236,-19.6193417 -4.48023,19.3265157 h -6.82285 l 4.48024,-19.3265157 z m -12.12299,0 -4.48024,19.3265157 h -6.82285 l 4.48024,-19.3265157 z m 7.43778,7.1156715 -1.17131,5.0073242 h -12.6208 l 1.17131,-5.0073242 z m 2.17628,12.2108442 10.80527,-19.3265157 h 8.19913 l 1.75696,19.3265157 h -6.41289 l -0.0879,-3.865304 h -5.388 l -1.90337,3.865304 z m 10.98097,-8.11128 h 3.16252 L 191.1023,7.0658889 Z M 211.08238,2.2928253 206.60214,21.619341 h -6.82285 l 4.48024,-19.3265157 z m -0.75197,19.3265157 4.48023,-19.3265157 h 7.08639 l 2.60615,9.1068887 0.6735,2.723281 h 0.0586 l 0.90776,-4.655933 1.66911,-7.1742367 h 5.91508 l -4.48024,19.3265157 h -6.99854 l -2.72328,-8.78478 -0.73206,-2.752564 h -0.0586 l -0.81991,4.363107 -1.66911,7.174237 z"
     style="font-style:italic;font-weight:900;font-size:292.826px;font-family:'Work Sans';letter-spacing:8px;fill:url(#linearGradient5)" />
  <path
     id="chainright"
     d="m 16.7501,18 h 3 c 0.96953,0 1.75005,0.780523 1.75005,1.75005 0,0.969528 -0.78052,1.75005 -1.75005,1.75005 h -3 c -0.96953,0 -1.75005,-0.780522 -1.75005,-1.75005 C 15.00005,18.780523 15.78057,18 16.7501,18 Z"
     stroke="#817e78"
     stroke-width="1"
     stroke-linecap="round"
     stroke-linejoin="round"
     style="stroke:url(#linearGradient10)" />
  <path
     id="chainleft"
     d="m 8.25005,18 h 3 c 0.96953,0 1.75005,0.780523 1.75005,1.75005 0,0.969528 -0.78052,1.75005 -1.75005,1.75005 h -3 C 7.28052,21.5001 6.5,20.719578 6.5,19.75005 6.5,18.780523 7.28052,18 8.25005,18 Z"
     stroke="#817e78"
     stroke-width="1"
     stroke-linecap="round"
     stroke-linejoin="round"
     style="stroke:url(#linearGradient8)" />
  <path
     id="chainlink"
     d="m 10.96275,19.75 h 6.00018"
     stroke="#817e78"
     stroke-width="1"
     stroke-linecap="round"
     stroke-linejoin="round" />
  <path
     id="handle"
     d="m 12.750342,12.00044 c 0,-0.729694 -0.05168,-2.4592612 -1.140572,-4.9185879 -0.48302,-1.0909261 -0.476513,-2.2327959 -0.296983,-3.1320209 0.05864,-0.2937418 0.206586,-0.4437441 0.407455,-0.6055635 0.232008,-0.1869074 0.348012,-0.2803683 0.468159,-0.3597905 0.385011,-0.2545206 0.811871,-0.4098941 1.252091,-0.4557656 0.365507,-0.038091 0.753595,-0.038091 1.1191,0 0.440223,0.045873 0.867069,0.201245 1.252109,0.4557656 0.120136,0.079424 0.236163,0.1728831 0.468158,0.3597905 0.200823,0.1618194 0.348769,0.3118217 0.407439,0.6055635 0.179547,0.899225 0.18602,2.0410948 -0.297009,3.1320209 -1.088862,2.4593267 -1.140561,4.1888939 -1.140561,4.9185879"
     fill="none"
     stroke="#9d00d6"
     stroke-width="1"
     stroke-linecap="round"
     stroke-linejoin="round"
     style="stroke:url(#linearGradient2)" />
  <path
     id="rubber"
     d="m 20.500086,15.004668 c 0,0.549706 -0.413866,0.995418 -0.924306,0.995418 H 8.4243246 C 7.9138388,16.000086 7.5,15.554374 7.5,15.004668 V 14.800061 C 7.5,13.253625 8.6640651,12 10.100018,12 h 7.800053 c 1.435951,0 2.600015,1.253625 2.600015,2.800061 z"
     fill="none"
     stroke="#9d00d6"
     stroke-width="1"
     stroke-linecap="round"
     stroke-linejoin="round"
     style="stroke:url(#linearGradient13)" />
</svg>
