<?xml version="1.0" encoding="UTF-8" standalone="no"?>
<svg
   viewBox="0 0 23.042728 20.500099"
   width="230.42728"
   height="20.500099"
   color="#000000"
   fill="none"
   version="1.1"
   id="svg3"
   xmlns="http://www.w3.org/2000/svg"
   xmlns:svg="http://www.w3.org/2000/svg">
  <path
     id="chainright"
     d="m -97.2499,16.5 h 3 c 0.969528,0 1.75005,0.780523 1.75005,1.75005 0,0.969528 -0.780522,1.75005 -1.75005,1.75005 h -3 c -0.969527,0 -1.75005,-0.780522 -1.75005,-1.75005 0,-0.969527 0.780523,-1.75005 1.75005,-1.75005 z"
     stroke="#111317"
     stroke-width="1"
     stroke-linecap="round"
     stroke-linejoin="round" />
  <path
     id="chainleft"
     d="m -105.74995,16.5 h 3 c 0.96953,0 1.75005,0.780523 1.75005,1.75005 0,0.969528 -0.78052,1.75005 -1.75005,1.75005 h -3 c -0.96953,0 -1.75005,-0.780522 -1.75005,-1.75005 0,-0.969527 0.78052,-1.75005 1.75005,-1.75005 z"
     stroke="#111317"
     stroke-width="1"
     stroke-linecap="round"
     stroke-linejoin="round" />
  <path
     id="chainlink"
     d="m -103.03725,18.25 h 6.000185"
     stroke="#111317"
     stroke-width="1"
     stroke-linecap="round"
     stroke-linejoin="round" />
  <path
     id="rubber"
     d="m -93.499907,13.004668 c 0,0.549706 -0.413866,0.995418 -0.924306,0.995418 h -11.151457 c -0.51048,0 -0.92432,-0.445712 -0.92432,-0.995418 v -0.204607 c 0,-1.546436 1.16406,-2.800061 2.60002,-2.800061 h 7.800048 c 1.435951,0 2.600015,1.253625 2.600015,2.800061 z"
     fill="none"
     stroke="#111317"
     stroke-width="1"
     stroke-linecap="round"
     stroke-linejoin="round" />
  <path
     id="handle"
     d="m -101.24965,10.00044 c 0,-0.729694 -0.0517,-2.4592612 -1.14057,-4.9185879 -0.48302,-1.0909261 -0.47652,-2.2327959 -0.29699,-3.1320209 0.0587,-0.2937418 0.20659,-0.4437441 0.40746,-0.6055635 0.23201,-0.1869074 0.34801,-0.2803683 0.46816,-0.35979052 0.38501,-0.2545206 0.81187,-0.4098941 1.25209,-0.4557656 0.36551,-0.038091 0.753594,-0.038091 1.119099,0 0.440223,0.045873 0.867069,0.201245 1.252109,0.4557656 0.120136,0.079424 0.236163,0.17288312 0.468158,0.35979052 0.200823,0.1618194 0.348769,0.3118217 0.407439,0.6055635 0.179547,0.899225 0.18602,2.0410948 -0.297009,3.1320209 -1.088862,2.4593267 -1.140561,4.1888939 -1.140561,4.9185879"
     fill="none"
     stroke="#111317"
     stroke-width="1"
     stroke-linecap="round"
     stroke-linejoin="round" />
  <path
     id="stampchain"
     d="m -77.809598,20.250017 q -1.961935,0 -3.836021,-0.439239 -1.844804,-0.468522 -3.455347,-1.405565 -1.610543,-0.937043 -2.898977,-2.371891 l 3.396781,-4.040999 q 0.819913,0.937044 1.961934,1.669109 1.142022,0.732065 2.371891,1.171304 1.229869,0.409956 2.313326,0.409956 0.556369,0 0.849195,-0.11713 0.322109,-0.146413 0.468522,-0.351392 0.146413,-0.204978 0.146413,-0.468521 0,-0.322109 -0.322109,-0.527087 -0.292826,-0.234261 -0.995608,-0.468522 l -2.723282,-0.966325 q -1.200587,-0.43924 -2.284043,-1.142022 -1.083456,-0.732065 -1.756956,-1.844804 -0.6735,-1.1127386 -0.6735,-2.6647164 0,-2.196195 1.112739,-3.6017598 1.112739,-1.4348474 3.016108,-2.13762992 1.903369,-0.7027824 4.275259,-0.7027824 3.162521,0 5.358716,1.02489102 2.196195,0.9956085 3.894586,2.6354341 l -3.60176,3.9238684 q -0.732065,-0.732065 -1.639825,-1.2884344 -0.907761,-0.585652 -1.903369,-0.9077606 -0.995609,-0.3221086 -2.0205,-0.3221086 -0.468521,0 -0.79063,0.087848 -0.292826,0.087848 -0.439239,0.2635434 -0.146413,0.1756956 -0.146413,0.439239 0,0.3513912 0.439239,0.6149346 0.439239,0.2342608 1.171304,0.4978042 l 2.489021,0.878478 q 2.25476,0.7906304 3.455347,2.0790644 1.229869,1.259152 1.229869,3.426064 0,2.108348 -1.112739,3.60176 -1.112739,1.493413 -3.016108,2.284043 -1.903369,0.761348 -4.333824,0.761348 z M -46.021439,0.54282648 -47.192743,5.5501512 h -6.032216 l -3.308934,14.3191918 h -6.822846 l 3.308934,-14.3191918 h -6.061498 l 1.171304,-5.00732472 z M -51.100069,19.869343 -40.29479,0.54282648 h 8.199128 l 1.756956,19.32651652 h -6.412889 l -0.08785,-3.865303 h -5.387998 l -1.903369,3.865303 z m 10.980975,-8.111281 h 3.162521 l -0.08785,-6.4421716 z m 12.051669,8.111281 4.480238,-19.32651652 h 8.345541 l 0.614935,7.61347612 0.146413,4.9487594 h 0.02928 l 2.34261,-4.978042 3.8653035,-7.58419352 H 1.244458 L -3.2357798,19.869343 h -5.944368 l 1.5519779,-6.705716 1.4055648,-6.0907806 h -0.058565 L -13.045451,19.869343 h -5.124455 L -19.399775,7.2778246 h -0.05856 l -1.112739,5.8858024 -1.551978,6.705716 z m 28.8599052,0 4.4802379,-19.32651652 h 8.3455409 q 3.836021,0 5.973651,1.61054312 2.166912,1.5812604 2.166912,4.538803 0,2.2254774 -1.054174,3.9531514 -1.054173,1.698391 -3.04539,2.664716 -1.961934,0.966326 -4.743781,0.966326 H 5.6533919 L 6.736848,9.444737 h 5.592977 q 0.878478,0 1.46413,-0.292826 0.614934,-0.322109 0.937043,-0.819913 0.322109,-0.5270866 0.322109,-1.1420212 0,-0.8491954 -0.497805,-1.317717 Q 14.057498,5.3744556 12.798346,5.3744556 H 10.953543 L 7.615326,19.869343 Z m 32.1395758,0.292826 q -2.664717,0 -4.714499,-1.024891 -2.020499,-1.054174 -3.191803,-2.92826 -1.142022,-1.903369 -1.142022,-4.421673 0,-2.664717 0.732065,-4.7730638 0.761348,-2.1376298 2.166913,-3.6310424 1.405564,-1.5226952 3.426064,-2.3133255 2.020499,-0.81991282 4.568086,-0.81991282 2.401173,0 4.245977,0.81991282 1.874086,0.8199129 3.016107,2.3718907 1.171304,1.5226952 1.434848,3.6896076 L 37.03162,8.390563 Q 37.09019,6.9264334 36.533816,6.1650858 36.006729,5.3744556 34.718294,5.3744556 q -1.083456,0 -1.874086,0.6734998 -0.761348,0.6734998 -1.259152,1.7276734 -0.497804,1.0248912 -0.732065,2.1961952 -0.204978,1.171304 -0.204978,2.196195 0,0.878478 0.263543,1.522695 0.292826,0.644217 0.878478,0.995609 0.585652,0.351391 1.551978,0.351391 1.200587,0 1.874087,-0.761348 0.702782,-0.761347 1.171304,-1.961934 l 6.002933,2.196195 q -1.288435,2.664717 -3.631043,4.158129 -2.313325,1.493413 -5.827237,1.493413 z M 67.355653,0.54282648 62.875415,19.869343 H 56.052569 L 60.532807,0.54282648 Z m -12.122996,0 L 50.752419,19.869343 H 43.929573 L 48.409811,0.54282648 Z m 7.43778,7.11567192 -1.171304,5.0073246 H 48.878332 l 1.171304,-5.0073246 z m 2.47627,12.2108446 10.80528,-19.32651652 h 8.199128 L 85.908071,19.869343 h -6.412889 l -0.08785,-3.865303 h -5.387999 l -1.903369,3.865303 z m 10.980976,-8.111281 h 3.16252 L 79.202356,5.3158904 Z M 99.48244,0.54282648 95.002205,19.869343 H 88.179359 L 92.659597,0.54282648 Z M 99.03046,19.869343 103.5107,0.54282648 h 7.08639 l 2.60615,9.10688852 0.6735,2.723282 h 0.0586 l 0.90776,-4.6559334 1.66911,-7.17423712 h 5.91508 L 117.94705,19.869343 h -6.99854 l -2.72328,-8.78478 -0.73206,-2.752565 h -0.0586 l -0.81991,4.363108 -1.66911,7.174237 z"
     style="font-style:italic;font-weight:900;font-size:29.2826px;font-family:'Work Sans';-inkscape-font-specification:'Work Sans Heavy Italic';letter-spacing:1.1px;fill:#111317;fill-opacity:1"
     aria-label="STAMPCHAIN" />
</svg>
