<svg
   viewBox="0 0 240 24"
   width="240"
   height="24"
   fill="none"
   version="1.1"
   id="logo"
   xmlns="http://www.w3.org/2000/svg"
   xmlns:svg="http://www.w3.org/2000/svg">
  <path
     id="stampchain text"
     d="m 36.190343,22.000013 q -1.961934,0 -3.83602,-0.439239 -1.844804,-0.468522 -3.455347,-1.405565 -1.610543,-0.937043 -2.898977,-2.37189 L 29.39678,13.74232 q 0.819913,0.937043 1.961934,1.669108 1.142022,0.732065 2.371891,1.171304 1.229869,0.409956 2.313325,0.409956 0.556369,0 0.849195,-0.11713 0.322109,-0.146413 0.468522,-0.351391 0.146413,-0.204978 0.146413,-0.468522 0,-0.322108 -0.322109,-0.527087 -0.292826,-0.23426 -0.995608,-0.468521 l -2.723282,-0.966326 q -1.200586,-0.439239 -2.284042,-1.142021 -1.083456,-0.732065 -1.756956,-1.844804 -0.6735,-1.1127388 -0.6735,-2.6647165 0,-2.1961949 1.112739,-3.6017597 1.112738,-1.4348473 3.016107,-2.1376297 1.903369,-0.7027824 4.27526,-0.7027824 3.162521,0 5.358715,1.024891 2.196195,0.9956084 3.894586,2.6354339 L 42.80821,9.5841909 Q 42.076145,8.8521259 41.168385,8.2957565 40.260624,7.7101045 39.265016,7.3879959 38.269408,7.0658873 37.244517,7.0658873 q -0.468522,0 -0.790631,0.087848 -0.292826,0.087848 -0.439239,0.2635434 -0.146413,0.1756956 -0.146413,0.439239 0,0.3513912 0.439239,0.6149346 0.439239,0.2342608 1.171304,0.4978042 l 2.489021,0.8784779 q 2.25476,0.7906296 3.455347,2.0790646 1.229869,1.259152 1.229869,3.426064 0,2.108347 -1.112739,3.601759 -1.112738,1.493413 -3.016107,2.284043 -1.903369,0.761348 -4.333825,0.761348 z M 67.678499,2.2928237 66.507195,7.3001481 H 60.47498 L 57.166046,21.619339 H 50.3432 L 53.652134,7.3001481 H 47.590636 L 48.76194,2.2928237 Z M 62.299872,21.619339 73.105151,2.2928237 h 8.199128 l 1.756956,19.3265153 h -6.412889 l -0.08785,-3.865303 H 71.1725 l -1.903369,3.865303 z m 10.980975,-8.11128 h 3.16252 L 76.35552,7.0658873 Z m 11.751665,8.11128 4.480237,-19.3265153 h 8.345541 l 0.614935,7.6134757 0.146413,4.9487596 h 0.02928 l 2.342612,-4.9780422 3.8653,-7.5841931 h 9.48756 l -4.48023,19.3265153 h -5.94437 l 1.55198,-6.705715 1.40556,-6.0907807 h -0.0586 L 100.05449,21.619339 H 94.93003 L 93.700161,9.0278215 h -0.05856 l -1.112739,5.8858025 -1.551978,6.705715 z m 28.559908,0 4.48024,-19.3265153 h 8.34554 q 3.83602,0 5.97365,1.610543 2.16691,1.5812603 2.16691,4.5388028 0,2.2254775 -1.05418,3.9531505 -1.05417,1.698391 -3.04539,2.664717 -1.96193,0.966326 -4.74378,0.966326 h -7.26208 l 1.08346,-4.831629 h 5.59297 q 0.87848,0 1.46413,-0.292826 0.61494,-0.322109 0.93704,-0.819913 0.32211,-0.5270867 0.32211,-1.1420213 0,-0.8491954 -0.4978,-1.317717 -0.49781,-0.4978042 -1.75696,-0.4978042 h -1.8448 l -3.33822,14.4948865 z m 31.83957,0.292826 q -2.66471,0 -4.7145,-1.024891 -2.02049,-1.054174 -3.1918,-2.92826 -1.14202,-1.903369 -1.14202,-4.421672 0,-2.664717 0.73206,-4.7730639 0.76135,-2.1376297 2.16692,-3.6310423 1.40556,-1.5226951 3.42606,-2.3133253 2.0205,-0.8199128 4.56809,-0.8199128 2.40117,0 4.24597,0.8199128 1.87409,0.8199128 3.01611,2.3718905 1.17131,1.5226952 1.43485,3.6896075 l -6.44217,1.2591515 q 0.0586,-1.4641297 -0.49781,-2.2254773 -0.52708,-0.7906302 -1.81552,-0.7906302 -1.08346,0 -1.87409,0.6734998 -0.76134,0.6734998 -1.25915,1.7276734 -0.4978,1.0248913 -0.73206,2.1961953 -0.20498,1.171304 -0.20498,2.196194 0,0.878478 0.26354,1.522696 0.29283,0.644217 0.87848,0.995608 0.58565,0.351391 1.55198,0.351391 1.20059,0 1.87408,-0.761347 0.70279,-0.761348 1.17131,-1.961935 l 6.00293,2.196195 q -1.28843,2.664717 -3.63104,4.158129 -2.31333,1.493413 -5.82724,1.493413 z M 179.55558,2.2928237 175.07534,21.619339 h -6.82284 l 4.48024,-19.3265153 z m -12.12299,0 -4.48024,19.3265153 h -6.82285 l 4.48024,-19.3265153 z m 7.43778,7.1156716 -1.17131,5.0073247 h -12.6208 l 1.17131,-5.0073247 z m 2.17627,12.2108437 10.80528,-19.3265153 h 8.19913 l 1.75696,19.3265153 h -6.41289 l -0.0879,-3.865303 h -5.388 l -1.90337,3.865303 z m 10.98098,-8.11128 h 3.16252 l -0.0879,-6.4421717 z M 211.08237,2.2928237 206.60213,21.619339 h -6.82285 l 4.48024,-19.3265153 z m -0.75198,19.3265153 4.48024,-19.3265153 h 7.08639 l 2.60615,9.1068883 0.6735,2.723282 h 0.0586 l 0.90776,-4.6559335 1.66911,-7.1742368 h 5.91508 l -4.48024,19.3265153 h -6.99854 l -2.72328,-8.78478 -0.73206,-2.752564 h -0.0586 l -0.81991,4.363107 -1.66911,7.174237 z"
     style="font-style:italic;font-weight:900;font-size:292.826px;font-family:'Work Sans';-inkscape-font-specification:'Work Sans Heavy Italic';letter-spacing:8px;display:inline;fill:#f9fafb;stroke-width:0.1" />
  <path
     id="chainright"
     d="m 16.7501,18 h 3 c 0.969528,0 1.75005,0.780523 1.75005,1.75005 0,0.969528 -0.780522,1.75005 -1.75005,1.75005 h -3 c -0.969527,0 -1.75005,-0.780522 -1.75005,-1.75005 C 15.00005,18.780523 15.780573,18 16.7501,18 Z"
     stroke="#f9fafb"
     stroke-width="1"
     stroke-linecap="round"
     stroke-linejoin="round" />
  <path
     id="chainleft"
     d="M 8.2500496,18 H 11.25005 c 0.969528,0 1.75005,0.780523 1.75005,1.75005 0,0.969528 -0.780522,1.75005 -1.75005,1.75005 H 8.2500496 C 7.2805226,21.5001 6.5,20.719578 6.5,19.75005 6.5,18.780523 7.2805226,18 8.2500496,18 Z"
     stroke="#f9fafb"
     stroke-width="1"
     stroke-linecap="round"
     stroke-linejoin="round" />
  <path
     id="chainlink"
     d="m 10.962751,19.75 h 6.000184"
     stroke="#f9fafb"
     stroke-width="1"
     stroke-linecap="round"
     stroke-linejoin="round" />
  <path
     id="rubber"
     d="m 21.00005,15.33041 c 0,0.645885 -0.445703,1.16959 -0.9954,1.16959 H 7.9954695 C 7.44572,16.5 7.00005,15.976295 7.00005,15.33041 V 15.090001 C 7.00005,13.272975 8.2536504,11.8 9.8000504,11.8 h 8.4000016 c 1.546401,0 2.799998,1.472975 2.799998,3.290001 z"
     fill="#f9fafb" />
  <path
     id="handle"
     d="m 12.389934,12.5 c 0,-0.806478 0.145879,-2.718046 -1.079313,-5.4361647 C 10.767149,5.8581123 10.77447,4.5960852 10.97647,3.6022356 11.042453,3.2775839 11.208911,3.1117971 11.43492,2.9329495 11.695964,2.726374 11.826487,2.6230785 11.961674,2.5352987 12.394868,2.2539953 12.87515,2.0822721 13.37047,2.0315735 c 0.411248,-0.042098 0.847912,-0.042098 1.259158,0 0.495322,0.050698 0.975588,0.2224218 1.408819,0.5037252 0.135169,0.087782 0.265717,0.1910753 0.52675,0.3976508 0.225955,0.1788476 0.39242,0.3446344 0.458429,0.6692861 0.202021,0.9938496 0.209306,2.2558767 -0.334178,3.4615997 C 15.464308,9.781954 15.609961,11.693522 15.609961,12.5"
     fill="#f9fafb" />
</svg>
