<?xml version="1.0" encoding="UTF-8" standalone="no"?>
<svg
   viewBox="0 0 24 24"
   width="240"
   height="24"
   color="#000000"
   fill="none"
   version="1.1"
   id="stampchain-outline-gradient-text"
   xmlns:xlink="http://www.w3.org/1999/xlink"
   xmlns="http://www.w3.org/2000/svg"
   xmlns:svg="http://www.w3.org/2000/svg">
  <defs>
    <linearGradient
       id="linearGradient4">
      <stop
         style="stop-color:#bb00ff;stop-opacity:1;"
         offset="0"
         id="stop5" />
      <stop
         style="stop-color:#9d00d6;stop-opacity:1;"
         offset="0.16733727"
         id="stop13" />
      <stop
         style="stop-color:#7f00ad;stop-opacity:1;"
         offset="0.34999999"
         id="stop17" />
      <stop
         style="stop-color:#610085;stop-opacity:1;"
         offset="0.55000001"
         id="stop18" />
      <stop
         style="stop-color:#585552;stop-opacity:1;"
         offset="0.55000001"
         id="stop20" />
      <stop
         style="stop-color:#817e78;stop-opacity:1;"
         offset="0.68000001"
         id="stop21" />
      <stop
         style="stop-color:#a8a39d;stop-opacity:1;"
         offset="0.83999997"
         id="stop22" />
      <stop
         style="stop-color:#d1cbc3;stop-opacity:1;"
         offset="1"
         id="stop23" />
    </linearGradient>
    <linearGradient
       id="linearGradient6">
      <stop
         style="stop-color:#a8a39d;stop-opacity:1;"
         offset="0"
         id="stop7" />
      <stop
         style="stop-color:#817e78;stop-opacity:1;"
         offset="1"
         id="stop8" />
    </linearGradient>
    <linearGradient
       id="linearGradient3">
      <stop
         style="stop-color:#7f00ad;stop-opacity:1;"
         offset="0"
         id="stop4" />
      <stop
         style="stop-color:#610085;stop-opacity:1;"
         offset="0.71453494"
         id="stop16" />
      <stop
         style="stop-color:#43005c;stop-opacity:1;"
         offset="1"
         id="stop6" />
    </linearGradient>
    <linearGradient
       id="linearGradient1">
      <stop
         style="stop-color:#bb00ff;stop-opacity:1;"
         offset="0"
         id="stop1" />
      <stop
         style="stop-color:#9d00d6;stop-opacity:1;"
         offset="0.17715269"
         id="stop12" />
      <stop
         style="stop-color:#7f00ad;stop-opacity:1;"
         offset="0.39458421"
         id="stop14" />
      <stop
         style="stop-color:#610085;stop-opacity:1;"
         offset="0.65323126"
         id="stop15" />
      <stop
         style="stop-color:#7f00ad;stop-opacity:1;"
         offset="1"
         id="stop3" />
    </linearGradient>
    <linearGradient
       xlink:href="#linearGradient1"
       id="linearGradient2"
       x1="9.6864662"
       y1="3.844517"
       x2="12.156346"
       y2="11.692166"
       gradientUnits="userSpaceOnUse"
       gradientTransform="matrix(0.99235786,0,0,1.0060325,-107.90824,-0.54353485)" />
    <linearGradient
       xlink:href="#linearGradient3"
       id="linearGradient13"
       gradientUnits="userSpaceOnUse"
       x1="12.215862"
       y1="12.033512"
       x2="13.174191"
       y2="17.468468"
       gradientTransform="matrix(0.92999371,0,0,0.95725791,-107.15987,-0.09302268)" />
    <linearGradient
       xlink:href="#linearGradient9"
       id="linearGradient10"
       x1="17.90169"
       y1="20.068874"
       x2="18.985657"
       y2="21.675922"
       gradientUnits="userSpaceOnUse"
       gradientTransform="translate(-107.99995)" />
    <linearGradient
       id="linearGradient9">
      <stop
         style="stop-color:#817e78;stop-opacity:1;"
         offset="0"
         id="stop9" />
      <stop
         style="stop-color:#585552;stop-opacity:1;"
         offset="1"
         id="stop10" />
    </linearGradient>
    <linearGradient
       xlink:href="#linearGradient6"
       id="linearGradient8"
       x1="4.895658"
       y1="18.714344"
       x2="6.3958368"
       y2="20.211859"
       gradientUnits="userSpaceOnUse"
       gradientTransform="translate(-107.99995)" />
    <linearGradient
       xlink:href="#linearGradient4"
       id="linearGradient11"
       x1="25.000448"
       y1="12.293277"
       x2="189.35242"
       y2="12.293277"
       gradientUnits="userSpaceOnUse"
       gradientTransform="matrix(1.2202153,0,0,1.2202153,-114.50593,-3.001279)" />
  </defs>
  <path
     id="chainright"
     d="m -93.2499,18.25 h 3 c 0.969528,0 1.75005,0.780523 1.75005,1.75005 0,0.969528 -0.780522,1.75005 -1.75005,1.75005 h -3 c -0.969527,0 -1.75005,-0.780522 -1.75005,-1.75005 0,-0.969527 0.780523,-1.75005 1.75005,-1.75005 z"
     stroke="#817e78"
     stroke-width="1"
     stroke-linecap="round"
     stroke-linejoin="round"
     style="stroke:url(#linearGradient10)" />
  <path
     id="chainleft"
     d="m -101.74995,18.25 h 3 c 0.969528,0 1.75005,0.780523 1.75005,1.75005 0,0.969528 -0.780522,1.75005 -1.75005,1.75005 h -3 c -0.96953,0 -1.75005,-0.780522 -1.75005,-1.75005 0,-0.969527 0.78052,-1.75005 1.75005,-1.75005 z"
     stroke="#817e78"
     stroke-width="1"
     stroke-linecap="round"
     stroke-linejoin="round"
     style="stroke:url(#linearGradient8)" />
  <path
     id="chainlink"
     d="m -99.03725,20 h 6.000185"
     stroke="#817e78"
     stroke-width="1"
     stroke-linecap="round"
     stroke-linejoin="round" />
  <path
     id="rubber"
     d="m -89.499907,14.754668 c 0,0.549706 -0.413866,0.995418 -0.924306,0.995418 h -11.151457 c -0.51048,0 -0.92432,-0.445712 -0.92432,-0.995418 v -0.204607 c 0,-1.546436 1.16406,-2.800061 2.60002,-2.800061 h 7.800048 c 1.435951,0 2.600015,1.253625 2.600015,2.800061 z"
     fill="none"
     stroke="#9d00d6"
     stroke-width="1"
     stroke-linecap="round"
     stroke-linejoin="round"
     style="stroke:url(#linearGradient13)" />
  <path
     id="handle"
     d="m -97.249651,11.75044 c 0,-0.729694 -0.05168,-2.4592612 -1.140569,-4.9185879 -0.48302,-1.0909261 -0.47652,-2.2327959 -0.29699,-3.1320209 0.0587,-0.2937418 0.20659,-0.4437441 0.40746,-0.6055635 0.23201,-0.1869074 0.348011,-0.2803683 0.468158,-0.3597905 0.385011,-0.2545206 0.811871,-0.4098941 1.252091,-0.4557656 0.365507,-0.038091 0.753595,-0.038091 1.1191,0 0.440223,0.045873 0.867069,0.201245 1.252109,0.4557656 0.120136,0.079424 0.236163,0.1728831 0.468158,0.3597905 0.200823,0.1618194 0.348769,0.3118217 0.407439,0.6055635 0.179547,0.899225 0.18602,2.0410948 -0.297009,3.1320209 -1.088862,2.4593267 -1.140561,4.1888939 -1.140561,4.9185879"
     fill="none"
     stroke="#9d00d6"
     stroke-width="1"
     stroke-linecap="round"
     stroke-linejoin="round"
     style="stroke:url(#linearGradient2)" />
  <path
     id="stampchain"
     d="m -73.809598,22.000017 q -1.961935,0 -3.836021,-0.439239 -1.844804,-0.468522 -3.455347,-1.405565 -1.610543,-0.937043 -2.898977,-2.371891 l 3.396781,-4.040999 q 0.819913,0.937044 1.961934,1.669109 1.142022,0.732065 2.371891,1.171304 1.229869,0.409956 2.313326,0.409956 0.556369,0 0.849195,-0.11713 0.322109,-0.146413 0.468522,-0.351392 0.146413,-0.204978 0.146413,-0.468521 0,-0.322109 -0.322109,-0.527087 -0.292826,-0.234261 -0.995608,-0.468522 l -2.723282,-0.966325 q -1.200587,-0.43924 -2.284043,-1.142022 -1.083456,-0.732065 -1.756956,-1.844804 -0.6735,-1.1127386 -0.6735,-2.6647164 0,-2.196195 1.112739,-3.6017598 1.112739,-1.4348474 3.016108,-2.1376299 1.903369,-0.7027824 4.275259,-0.7027824 3.162521,0 5.358716,1.024891 2.196195,0.9956085 3.894586,2.6354341 l -3.60176,3.9238684 q -0.732065,-0.732065 -1.639825,-1.2884344 -0.907761,-0.585652 -1.903369,-0.9077606 -0.995609,-0.3221086 -2.0205,-0.3221086 -0.468521,0 -0.79063,0.087848 -0.292826,0.087848 -0.439239,0.2635434 -0.146413,0.1756956 -0.146413,0.439239 0,0.3513912 0.439239,0.6149346 0.439239,0.2342608 1.171304,0.4978042 l 2.489021,0.878478 q 2.25476,0.7906304 3.455347,2.0790644 1.229869,1.259152 1.229869,3.426064 0,2.108348 -1.112739,3.60176 -1.112739,1.493413 -3.016108,2.284043 -1.903369,0.761348 -4.333824,0.761348 z m 31.788159,-19.7071905 -1.171304,5.0073247 h -6.032216 l -3.308934,14.3191918 h -6.822846 l 3.308934,-14.3191918 h -6.061498 l 1.171304,-5.0073247 z M -47.100069,21.619343 -36.29479,2.2928265 h 8.199128 l 1.756956,19.3265165 h -6.412889 l -0.08785,-3.865303 h -5.387998 l -1.903369,3.865303 z m 10.980975,-8.111281 h 3.162521 l -0.08785,-6.4421716 z m 12.051669,8.111281 4.480238,-19.3265165 h 8.345541 l 0.614935,7.6134761 0.146413,4.9487594 h 0.02928 L -8.1084078,9.87702 -4.2431045,2.2928265 H 5.244458 L 0.76422012,21.619343 H -5.1801478 l 1.5519779,-6.705716 1.4055648,-6.0907806 h -0.058565 L -9.045451,21.619343 h -5.124455 L -15.399775,9.0278246 h -0.05856 l -1.112739,5.8858024 -1.551978,6.705716 z m 28.8599052,0 4.4802379,-19.3265165 h 8.3455409 q 3.836021,0 5.973651,1.6105431 2.166912,1.5812604 2.166912,4.538803 0,2.2254774 -1.054174,3.9531514 -1.054173,1.698391 -3.04539,2.664716 -1.961934,0.966326 -4.743781,0.966326 H 9.6533919 l 1.0834561,-4.831629 h 5.592977 q 0.878478,0 1.46413,-0.292826 0.614934,-0.322109 0.937043,-0.819913 0.322109,-0.5270866 0.322109,-1.1420212 0,-0.8491954 -0.497805,-1.317717 Q 18.057498,7.1244556 16.798346,7.1244556 H 14.953543 L 11.615326,21.619343 Z m 32.1395758,0.292826 q -2.664717,0 -4.714499,-1.024891 -2.020499,-1.054174 -3.191803,-2.92826 -1.142022,-1.903369 -1.142022,-4.421673 0,-2.664717 0.732065,-4.7730638 0.761348,-2.1376298 2.166913,-3.6310424 1.405564,-1.5226952 3.426064,-2.3133255 2.020499,-0.8199128 4.568086,-0.8199128 2.401173,0 4.245977,0.8199128 1.874086,0.8199129 3.016107,2.3718907 1.171304,1.5226952 1.434848,3.6896076 L 41.03162,10.140563 Q 41.09019,8.6764334 40.533816,7.9150858 40.006729,7.1244556 38.718294,7.1244556 q -1.083456,0 -1.874086,0.6734998 -0.761348,0.6734998 -1.259152,1.7276734 -0.497804,1.0248912 -0.732065,2.1961952 -0.204978,1.171304 -0.204978,2.196195 0,0.878478 0.263543,1.522695 0.292826,0.644217 0.878478,0.995609 0.585652,0.351391 1.551978,0.351391 1.200587,0 1.874087,-0.761348 0.702782,-0.761347 1.171304,-1.961934 l 6.002933,2.196195 q -1.288435,2.664717 -3.631043,4.158129 -2.313325,1.493413 -5.827237,1.493413 z M 71.355653,2.2928265 66.875415,21.619343 H 60.052569 L 64.532807,2.2928265 Z m -12.122996,0 -4.480238,19.3265165 H 47.929573 L 52.409811,2.2928265 Z m 7.43778,7.1156719 -1.171304,5.0073246 H 52.878332 l 1.171304,-5.0073246 z m 2.47627,12.2108446 10.80528,-19.3265165 h 8.199128 l 1.756956,19.3265165 h -6.412889 l -0.08785,-3.865303 h -5.387999 l -1.903369,3.865303 z m 10.980976,-8.111281 h 3.16252 L 83.202356,7.0658904 Z M 103.48244,2.2928265 99.002205,21.619343 H 92.179359 L 96.659597,2.2928265 Z M 103.03046,21.619343 107.5107,2.2928265 h 7.08639 l 2.60615,9.1068885 0.6735,2.723282 h 0.0586 l 0.90776,-4.6559334 1.66911,-7.1742371 h 5.91508 l -4.48024,19.3265165 h -6.99854 l -2.72328,-8.78478 -0.73206,-2.752565 h -0.0586 l -0.81991,4.363108 -1.66911,7.174237 z"
     style="font-style:italic;font-weight:900;font-size:29.2826px;font-family:'Work Sans';-inkscape-font-specification:'Work Sans Heavy Italic';letter-spacing:1.1px;fill:url(#linearGradient11)"
     aria-label="STAMPCHAIN" />
</svg>
