<svg
   viewBox="0 0 24 24"
   width="480"
   height="480"
   fill="none"
   version="1.1"
   id="logo"
   xmlns="http://www.w3.org/2000/svg"
   xmlns:svg="http://www.w3.org/2000/svg">
  <path
     id="chainright"
     d="m 14.75005,18 h 3 c 0.969528,0 1.75005,0.780523 1.75005,1.75005 0,0.969528 -0.780522,1.75005 -1.75005,1.75005 h -3 C 13.780523,21.5001 13,20.719578 13,19.75005 13,18.780523 13.780523,18 14.75005,18 Z"
     stroke="#000000"
     stroke-width="1"
     stroke-linecap="round"
     stroke-linejoin="round" />
  <path
     id="chainleft"
     d="m 6.2499996,18 h 3 c 0.9695284,0 1.7500504,0.780523 1.7500504,1.75005 0,0.969528 -0.780522,1.75005 -1.7500504,1.75005 h -3 C 5.2804726,21.5001 4.49995,20.719578 4.49995,19.75005 4.49995,18.780523 5.2804726,18 6.2499996,18 Z"
     stroke="#000000"
     stroke-width="1"
     stroke-linecap="round"
     stroke-linejoin="round" />
  <path
     id="chainlink"
     d="M 8.9627005,19.75 H 14.962885"
     stroke="#000000"
     stroke-width="1"
     stroke-linecap="round"
     stroke-linejoin="round" />
  <path
     id="rubber"
     d="M 19,15.33041 C 19,15.976295 18.554297,16.5 18.0046,16.5 H 5.9954195 C 5.44567,16.5 5,15.976295 5,15.33041 V 15.090001 C 5,13.272975 6.2536004,11.8 7.8000004,11.8 H 16.200002 C 17.746403,11.8 19,13.272975 19,15.090001 Z"
     fill="#000000" />
  <path
     id="handle"
     d="m 10.389884,12.5 c 0,-0.806478 0.145879,-2.718046 -1.0793126,-5.4361647 C 8.7670988,5.8581123 8.7744202,4.5960852 8.9764195,3.6022356 9.0424033,3.2775839 9.2088612,3.1117971 9.43487,2.9329495 9.6959137,2.726374 9.8264373,2.6230785 9.9616235,2.5352987 10.394818,2.2539953 10.8751,2.0822721 11.37042,2.0315735 c 0.411248,-0.042098 0.847912,-0.042098 1.259158,0 0.495322,0.050698 0.975588,0.2224218 1.408819,0.5037252 0.135169,0.087782 0.265717,0.1910753 0.52675,0.3976508 0.225955,0.1788476 0.39242,0.3446344 0.458429,0.6692861 0.202021,0.9938496 0.209306,2.2558767 -0.334178,3.4615997 C 13.464258,9.781954 13.609911,11.693522 13.609911,12.5"
     fill="#000000" />
</svg>
