<?xml version="1.0" encoding="UTF-8" standalone="no"?>
<svg
   viewBox="0 0 24 24"
   width="24"
   height="24"
   color="#000000"
   fill="none"
   version="1.1"
   id="svg3"
   xmlns:xlink="http://www.w3.org/1999/xlink"
   xmlns="http://www.w3.org/2000/svg"
   xmlns:svg="http://www.w3.org/2000/svg">
  <defs
     id="defs1">
    <linearGradient
       id="linearGradient9">
      <stop
         style="stop-color:#817e78;stop-opacity:1;"
         offset="0"
         id="stop9" />
      <stop
         style="stop-color:#585552;stop-opacity:1;"
         offset="1"
         id="stop10" />
    </linearGradient>
    <linearGradient
       id="linearGradient7">
      <stop
         style="stop-color:#a8a39d;stop-opacity:1;"
         offset="0"
         id="stop7" />
      <stop
         style="stop-color:#817e78;stop-opacity:1;"
         offset="1"
         id="stop8" />
    </linearGradient>
    <linearGradient
       id="linearGradient4">
      <stop
         style="stop-color:#7f00ad;stop-opacity:1;"
         offset="0"
         id="stop5" />
      <stop
         style="stop-color:#610085;stop-opacity:1;"
         offset="0.63847548"
         id="stop12" />
      <stop
         style="stop-color:#43005c;stop-opacity:1;"
         offset="1"
         id="stop6" />
    </linearGradient>
    <linearGradient
       id="linearGradient1">
      <stop
         style="stop-color:#bb00ff;stop-opacity:1;"
         offset="0"
         id="stop1" />
      <stop
         style="stop-color:#9d00d6;stop-opacity:1;"
         offset="0.14467636"
         id="stop3" />
      <stop
         style="stop-color:#7f00ad;stop-opacity:1;"
         offset="0.33545855"
         id="stop4" />
      <stop
         style="stop-color:#610085;stop-opacity:1;"
         offset="0.68058729"
         id="stop11" />
      <stop
         style="stop-color:#7f00ad;stop-opacity:1;"
         offset="0.96758085"
         id="stop2" />
    </linearGradient>
    <linearGradient
       xlink:href="#linearGradient1"
       id="linearGradient2"
       x1="10.438786"
       y1="2.4863493"
       x2="13.22056"
       y2="11.74056"
       gradientUnits="userSpaceOnUse" />
    <linearGradient
       xlink:href="#linearGradient4"
       id="linearGradient6"
       x1="12.137086"
       y1="11.777159"
       x2="13.027322"
       y2="16.825937"
       gradientUnits="userSpaceOnUse" />
    <linearGradient
       xlink:href="#linearGradient7"
       id="linearGradient8"
       x1="4.895658"
       y1="18.714344"
       x2="6.3958368"
       y2="20.211859"
       gradientUnits="userSpaceOnUse" />
    <linearGradient
       xlink:href="#linearGradient9"
       id="linearGradient10"
       x1="17.90169"
       y1="20.068874"
       x2="18.985657"
       y2="21.675922"
       gradientUnits="userSpaceOnUse" />
  </defs>
  <path
     d="m 13.932219,18.5 h 4.235552 c 0.627248,0 1.132219,0.605908 1.132219,1.35854 v 0.282796 c 0,0.752633 -0.504971,1.35854 -1.132219,1.35854 H 13.932219 C 13.304971,21.499876 12.8,20.893969 12.8,20.141336 V 19.85854 C 12.8,19.105908 13.304971,18.5 13.932219,18.5 Z"
     stroke="#817e78"
     stroke-width="1"
     stroke-linecap="round"
     stroke-linejoin="round"
     id="chainright"
     style="stroke:url(#linearGradient10)" />
  <path
     d="m 9.252353,20.000355 h 5.499905"
     stroke="#817e78"
     stroke-width="1"
     stroke-linecap="round"
     stroke-linejoin="round"
     id="chainlink" />
  <path
     d="m 5.832201,18.50006 h 4.235486 c 0.627238,0 1.132201,0.60591 1.132201,1.358544 V 20.1414 c 0,0.752635 -0.504963,1.358544 -1.132201,1.358544 H 5.832201 C 5.204963,21.499944 4.7,20.894035 4.7,20.1414 V 19.858604 C 4.7,19.10597 5.204963,18.50006 5.832201,18.50006 Z"
     stroke="#817e78"
     stroke-width="1"
     stroke-linecap="round"
     stroke-linejoin="round"
     id="chainleft"
     style="stroke:url(#linearGradient8)" />
  <path
     d="m 10.389884,12.5 c 0,-0.806478 0.145879,-2.718046 -1.0793126,-5.4361647 C 8.7670988,5.8581123 8.7744202,4.5960852 8.9764195,3.6022356 9.0424033,3.2775839 9.2088612,3.1117971 9.43487,2.9329495 9.6959137,2.726374 9.8264373,2.6230785 9.9616235,2.5352987 10.394818,2.2539953 10.8751,2.0822721 11.37042,2.0315735 c 0.411248,-0.042098 0.847912,-0.042098 1.259158,0 0.495322,0.050698 0.975588,0.2224218 1.408819,0.5037252 0.135169,0.087782 0.265717,0.1910753 0.52675,0.3976508 0.225955,0.1788476 0.39242,0.3446344 0.458429,0.6692861 0.202021,0.9938496 0.209306,2.2558767 -0.334178,3.4615997 C 13.464258,9.781954 13.609911,11.693522 13.609911,12.5"
     id="handle"
     fill="#7f00ad"
     style="fill:url(#linearGradient2)" />
  <path
     d="M 19,15.33041 C 19,15.976295 18.554297,16.5 18.0046,16.5 H 5.9954195 C 5.44567,16.5 5,15.976295 5,15.33041 V 15.090001 C 5,13.272975 6.2536004,11.8 7.8000004,11.8 H 16.200002 C 17.746403,11.8 19,13.272975 19,15.090001 Z"
     fill="#7f00ad"
     id="rubber"
     style="fill:url(#linearGradient6)" />
</svg>
