<?xml version="1.0" encoding="UTF-8" standalone="no"?>
<svg
   viewBox="0 0 24 24"
   width="24"
   height="24"
   fill="none"
   version="1.1"
   id="svg3"
   xmlns="http://www.w3.org/2000/svg"
   xmlns:svg="http://www.w3.org/2000/svg">
  <defs
     id="defs1" />
  <path
     id="chainright"
     d="m 13.932219,18.5 h 4.235552 c 0.627248,0 1.132219,0.605908 1.132219,1.35854 v 0.282796 c 0,0.752633 -0.504971,1.35854 -1.132219,1.35854 H 13.932219 C 13.304971,21.499876 12.8,20.893969 12.8,20.141336 V 19.85854 C 12.8,19.105908 13.304971,18.5 13.932219,18.5 Z"
     stroke="#1d1d1d"
     stroke-width="1"
     stroke-linecap="round"
     stroke-linejoin="round" />
  <path
     id="chainlink"
     d="m 9.252353,20.000355 h 5.499905"
     stroke="#1d1d1d"
     stroke-width="1"
     stroke-linecap="round"
     stroke-linejoin="round" />
  <path
     id="chainleft"
     d="m 5.832201,18.50006 h 4.235486 c 0.627238,0 1.132201,0.60591 1.132201,1.358544 V 20.1414 c 0,0.752635 -0.504963,1.358544 -1.132201,1.358544 H 5.832201 C 5.204963,21.499944 4.7,20.894035 4.7,20.1414 V 19.858604 C 4.7,19.10597 5.204963,18.50006 5.832201,18.50006 Z"
     stroke="#1d1d1d"
     stroke-width="1"
     stroke-linecap="round"
     stroke-linejoin="round" />
  <path
     id="rubber"
     d="m 18.500043,15.004668 c 0,0.549706 -0.413866,0.995418 -0.924306,0.995418 H 6.4242816 c -0.5104858,0 -0.9243246,-0.445712 -0.9243246,-0.995418 V 14.800061 C 5.499957,13.253625 6.6640221,12 8.0999746,12 h 7.8000534 c 1.435951,0 2.600015,1.253625 2.600015,2.800061 z"
     fill="none"
     stroke="#1d1d1d"
     stroke-width="1"
     stroke-linecap="round"
     stroke-linejoin="round" />
  <path
     id="handle"
     d="m 10.750299,12.00044 c 0,-0.729694 -0.05168,-2.4592612 -1.1405723,-4.9185879 C 9.1267067,5.990926 9.1332138,4.8490562 9.3127436,3.9498312 9.3713881,3.6560894 9.5193303,3.5060871 9.720199,3.3442677 9.9522067,3.1573603 10.068211,3.0638994 10.188358,2.9844772 c 0.385011,-0.2545206 0.811871,-0.4098941 1.252091,-0.4557656 0.365507,-0.038091 0.753595,-0.038091 1.1191,0 0.440223,0.045873 0.867069,0.201245 1.252109,0.4557656 0.120136,0.079424 0.236163,0.1728831 0.468158,0.3597905 0.200823,0.1618194 0.348769,0.3118217 0.407439,0.6055635 0.179547,0.899225 0.18602,2.0410948 -0.297009,3.1320209 -1.088862,2.4593267 -1.140561,4.1888939 -1.140561,4.9185879"
     fill="none"
     stroke="#1d1d1d"
     stroke-width="1"
     stroke-linecap="round"
     stroke-linejoin="round" />
</svg>
